<svg id="Camada_1" data-name="Camada 1" xmlns="http://www.w3.org/2000/svg" viewBox="0 0 116.69 143.12"><defs><style>.cls-1{fill:#fff;fill-rule:evenodd;}</style></defs><path class="cls-1" d="M116.67,49.32c-11.15,7.22-29.18,13-49.83,15.06C31.47,68,1.48,59.44.06,45.43a12.27,12.27,0,0,1,2.17-7.88,8.42,8.42,0,0,0,0,.87C3.32,52.45,35.1,61.55,73,58.66c16.78-1.28,32-4.7,43.69-9.34M1.22,109.43H19.49v3.32H9.05v7.17h9.89l.26,3.62H9.05v11.17H1.22ZM41,134.71l7.54-20.84a7.62,7.62,0,0,1,2.35-3.59,6.17,6.17,0,0,1,3.7-1,5.51,5.51,0,0,1,3.22.88,7.46,7.46,0,0,1,2.29,3.59l7.79,21H58.4L56.77,130H47.19l-1.85,4.67Zm14.56-8.2-3.42-10.15h-.11l-3.61,10.15Zm57-11.88-3.48,1.75c-1-2.59-2.38-4.08-5.19-4-3.92.1-5,5.23-4.93,8.49.07,3.64.76,7.82,4.65,8A4,4,0,0,0,108,125v-.63h-2.49v-4h10.18v22.76H1V138H108v-7.36c-3.35,2.22-7.9,2.08-11.63.26a10.38,10.38,0,0,1-6.1-9.62c0-7,4.58-12.14,11.58-12.14,4.62,0,8.76,1,10.74,5.49M59.28,0A159.88,159.88,0,0,1,84.77,2,189.55,189.55,0,0,0,63.89.8C32.75.8,8.94,7.83,8.06,16.51,6,37,92.08,39.66,116.69,25.19c-6.61,8.68-29.86,15.13-57.4,15.13C26.63,40.32,0,31.26,0,20.16S26.63,0,59.28,0m57.39,76C105.52,83.2,87.49,89,66.84,91,31.47,94.61,1.48,86.1.06,72.09A12.3,12.3,0,0,1,2.23,64.2a8.62,8.62,0,0,0,0,.88C3.32,79.11,35.1,88.2,73,85.31,89.76,84,105,80.61,116.67,76"/></svg>