<svg xmlns="http://www.w3.org/2000/svg" viewBox="0 0 260 81.37"><defs><style>.cls-1{fill:#e22432;}.cls-2,.cls-3{fill:#fff;}.cls-2{fill-rule:evenodd;}</style></defs><title>Asset 26</title><g id="Layer_2" data-name="Layer 2"><g id="Layer_1-2" data-name="Layer 1"><rect class="cls-1" x="189.81" width="70.19" height="74.89"/><path class="cls-2" d="M246.75,29.12c-4.18,2.7-10.93,4.86-18.66,5.64-13.25,1.33-24.48-1.85-25-7.1a4.58,4.58,0,0,1,.81-2.95c0,.11,0,.22,0,.32.4,5.26,12.3,8.66,26.49,7.58a57.63,57.63,0,0,0,16.36-3.49m-43.23,22.5h6.84v1.25h-3.91v2.68h3.7l.1,1.36h-3.8v4.18h-2.93Zm14.9,9.47,2.82-7.8a2.87,2.87,0,0,1,.88-1.35,2.34,2.34,0,0,1,1.39-.38,2,2,0,0,1,1.2.34,2.69,2.69,0,0,1,.86,1.34l2.92,7.85h-3.56l-.61-1.75h-3.59L220,61.09ZM223.87,58l-1.28-3.8h0L221.2,58Zm21.35-4.45-1.31.66a1.88,1.88,0,0,0-1.94-1.5c-1.47,0-1.87,2-1.84,3.18s.28,2.92,1.74,3a1.5,1.5,0,0,0,1.63-1.46v-.24h-.94V55.72h3.82v8.52H203.43V62.32H243.5V59.57a4.5,4.5,0,0,1-4.36.1,3.9,3.9,0,0,1-2.28-3.61,4.24,4.24,0,0,1,4.33-4.54c1.73,0,3.29.38,4,2m-20-42.92a60.14,60.14,0,0,1,9.54.73A70.26,70.26,0,0,0,227,11c-11.66,0-20.57,2.63-20.9,5.88-.78,7.66,31.46,8.67,40.67,3.25-2.47,3.25-11.18,5.66-21.49,5.66-12.23,0-22.2-3.39-22.2-7.54s10-7.55,22.2-7.55M246.75,39.1c-4.18,2.7-10.93,4.86-18.66,5.64-13.25,1.33-24.48-1.85-25-7.1a4.58,4.58,0,0,1,.81-3c0,.11,0,.22,0,.33.4,5.25,12.3,8.66,26.49,7.57a57.63,57.63,0,0,0,16.36-3.49"/><path class="cls-1" d="M2,63a1.78,1.78,0,0,1,1.8-1.8h5.8a5.88,5.88,0,0,1,4.28,1.45A3.75,3.75,0,0,1,15,65.43v0A3.82,3.82,0,0,1,12.83,69c1.89.72,3.06,1.82,3.06,4v0c0,3-2.43,4.49-6.13,4.49h-6A1.79,1.79,0,0,1,2,75.78ZM8.8,67.82c1.59,0,2.6-.51,2.6-1.73v0c0-1.07-.85-1.68-2.37-1.68H5.48v3.46Zm1,6.6c1.59,0,2.55-.56,2.55-1.78v0c0-1.1-.82-1.78-2.67-1.78H5.48v3.6Z"/><path class="cls-1" d="M17.75,62a1.76,1.76,0,0,1,2-1.66c1.13,0,2,.63,2,1.66v.05a1.77,1.77,0,0,1-2,1.68,1.78,1.78,0,0,1-2-1.68ZM18,66.67a1.78,1.78,0,0,1,3.56,0v9.27a1.78,1.78,0,0,1-3.56,0Z"/><path class="cls-1" d="M24.05,62.13a1.78,1.78,0,0,1,3.56,0V75.94a1.78,1.78,0,0,1-3.56,0Z"/><path class="cls-1" d="M30.17,66.67a1.78,1.78,0,0,1,3.55,0v9.27a1.78,1.78,0,1,1-3.55,0ZM31,63.19a1.26,1.26,0,0,1,.24-.63l1.28-2a1.54,1.54,0,0,1,1.34-.79c.86,0,2,.54,2,1.07a1.18,1.18,0,0,1-.47.85L33.89,63a2.6,2.6,0,0,1-2,.78C31.34,63.8,31,63.56,31,63.19Z"/><path class="cls-1" d="M36.14,66.67a1.78,1.78,0,0,1,3.56,0v.15a4.42,4.42,0,0,1,3.67-2c2.69,0,4.26,1.78,4.26,4.66v6.48a1.78,1.78,0,0,1-3.56,0V70.58c0-1.68-.79-2.55-2.15-2.55s-2.22.87-2.22,2.55v5.36a1.78,1.78,0,0,1-3.56,0Z"/><path class="cls-1" d="M50.86,80.51a1.45,1.45,0,0,1,.44-2.84,1.44,1.44,0,0,1,.59.12,8.08,8.08,0,0,0,3.46.75c2.44,0,3.58-1.17,3.58-3.42v-.61a4.89,4.89,0,0,1-4.09,2,5.51,5.51,0,0,1-5.57-5.85v0a5.52,5.52,0,0,1,5.57-5.85,5.09,5.09,0,0,1,4,1.87v0a1.78,1.78,0,0,1,3.55,0v8.08a6.75,6.75,0,0,1-1.59,4.94c-1.17,1.17-3,1.68-5.4,1.68A12.09,12.09,0,0,1,50.86,80.51Zm8.07-9.81v0a3.05,3.05,0,0,0-6.1,0v0a3.05,3.05,0,0,0,6.1,0Z"/><path class="cls-1" d="M76.28,75.94a1.78,1.78,0,1,1-3.55,0V75.8a4.46,4.46,0,0,1-3.68,2c-2.69,0-4.26-1.77-4.26-4.65V66.67a1.78,1.78,0,0,1,3.56,0V72c0,1.69.8,2.55,2.15,2.55s2.23-.86,2.23-2.55V66.67a1.78,1.78,0,0,1,3.55,0Z"/><path class="cls-1" d="M84.59,77.86A6.27,6.27,0,0,1,78,71.38v0a6.25,6.25,0,0,1,6.2-6.53,5.93,5.93,0,0,1,6,6,1.63,1.63,0,0,1-1.66,1.71H81.57A2.92,2.92,0,0,0,84.64,75a4.12,4.12,0,0,0,2.53-.85,1.35,1.35,0,0,1,.86-.28,1.36,1.36,0,0,1,1.38,1.41,1.42,1.42,0,0,1-.46,1A6.49,6.49,0,0,1,84.59,77.86Zm2.3-7.53c-.21-1.6-1.15-2.67-2.65-2.67s-2.43,1-2.71,2.67Z"/><path class="cls-3" d="M27.6,41.43A9.49,9.49,0,0,1,21,44a9.65,9.65,0,0,1-7.56-3.37,12.87,12.87,0,0,1-3-8.83,14.52,14.52,0,0,1,2.81-8.95q2.81-3.73,8.28-3.73,6.65,0,9.33,7.09h6.32V13H30.9v2.9a17.81,17.81,0,0,0-11.21-3.49,21.79,21.79,0,0,0-9.87,2.25,17.16,17.16,0,0,0-7.16,6.67A19.78,19.78,0,0,0,0,31.71,19.24,19.24,0,0,0,5.12,45.44q5.11,5.45,15.2,5.43,14.15,0,18.39-12.8H30.13A11.43,11.43,0,0,1,27.6,41.43Z"/><path class="cls-3" d="M148.36,21.5A4.54,4.54,0,0,0,152.91,17a4.45,4.45,0,0,0-1.32-3.23,4.52,4.52,0,0,0-6.44,0A4.46,4.46,0,0,0,143.82,17a4.59,4.59,0,0,0,4.54,4.54Z"/><polygon class="cls-3" points="105.94 12.44 95.83 12.44 91.75 20.99 96.15 20.99 105.94 12.44"/><path class="cls-3" d="M64.29,27.4a13.78,13.78,0,0,0-9.72-3.64,13.81,13.81,0,0,0-9.71,3.64q-4,3.63-4,10t4,10A13.81,13.81,0,0,0,54.57,51a13.67,13.67,0,0,0,9.77-3.68q3.91-3.68,3.91-9.94T64.29,27.4Zm-6,15.38a4.59,4.59,0,0,1-3.75,1.77,4.29,4.29,0,0,1-3.86-2,9.17,9.17,0,0,1-1.27-5q0-7.41,5.13-7.42A4.49,4.49,0,0,1,58.33,32a8.5,8.5,0,0,1,1.4,5.2Q59.73,41,58.29,42.78Z"/><path class="cls-3" d="M180.11,27.4a14.8,14.8,0,0,0-19.44,0q-4,3.63-4,10t4,10A13.83,13.83,0,0,0,170.39,51a13.69,13.69,0,0,0,9.77-3.68,13,13,0,0,0,3.91-9.94Q184.07,31,180.11,27.4Zm-6,15.38a4.57,4.57,0,0,1-3.74,1.77,4.28,4.28,0,0,1-3.86-2,9.17,9.17,0,0,1-1.28-5q0-7.41,5.14-7.42A4.5,4.5,0,0,1,174.15,32a8.5,8.5,0,0,1,1.4,5.2Q175.55,41,174.1,42.78Z"/><path class="cls-3" d="M152.42,24.4h-22.3v3.17A9.3,9.3,0,0,0,122.63,24a10.2,10.2,0,0,0-8,3.75,14,14,0,0,0-3.28,9.63A14.36,14.36,0,0,0,114.53,47a9.7,9.7,0,0,0,7.69,3.78q3.84,0,7.9-3.63v2c0,2.74-.62,4.58-1.89,5.54a7.61,7.61,0,0,1-4.66,1.42,11.88,11.88,0,0,1-6.32-1.94l-4,5.52c2.54,1.88,6.42,2.81,11.61,2.81q13.61,0,13.6-12.87V30.42h5.69v14l0,6h12.19v-6h-3.87Zm-23.79,18a4.74,4.74,0,0,1-3.69,1.73,4.36,4.36,0,0,1-3.73-1.87,8,8,0,0,1-1.35-4.82,8.28,8.28,0,0,1,1.3-4.84,4.32,4.32,0,0,1,3.78-1.88,4.53,4.53,0,0,1,3.81,1.83,7.93,7.93,0,0,1,1.4,5A7.2,7.2,0,0,1,128.63,42.37Z"/><path class="cls-3" d="M108.41,31.63A11.88,11.88,0,0,0,103.89,26a13.2,13.2,0,0,0-7.71-2.25,13.66,13.66,0,0,0-14.1,14.08,12.49,12.49,0,0,0,3.85,9.54Q89.79,51,96.66,51q8.63,0,12.69-6.36l-6.45-2.07c-2,2-4,3.06-6,3.06a7.29,7.29,0,0,1-4.34-1.48c-1.37-1-2.12-2.66-2.25-5h19.38A21.22,21.22,0,0,0,108.41,31.63Zm-18,2.88c.5-3.5,2.28-5.25,5.32-5.25a5,5,0,0,1,3.86,1.53,6.64,6.64,0,0,1,1.7,3.72Z"/><polygon class="cls-3" points="77.72 13.04 65.33 13.04 65.33 19.02 69.41 19.02 69.41 44.42 69.4 50.41 81.46 50.41 81.46 44.42 77.72 44.42 77.72 13.04"/></g></g></svg>