<svg id="Camada_1" data-name="Camada 1" xmlns="http://www.w3.org/2000/svg" viewBox="0 0 187.46 200"><defs><style>.cls-1{fill:#e22733;}.cls-2{fill:#fff;fill-rule:evenodd;}</style></defs><rect class="cls-1" width="187.46" height="200"/><path class="cls-2" d="M152.06,77.76c-11.15,7.22-29.18,13-49.83,15.06-35.37,3.57-65.37-4.94-66.78-18.95A12.32,12.32,0,0,1,37.61,66c0,.29,0,.58,0,.87,1.08,14,32.85,23.13,70.74,20.24,16.78-1.28,32-4.7,43.69-9.34M36.61,137.87H54.88v3.32H44.44v7.17h9.88l.27,3.62H44.44v11.17H36.61Zm39.8,25.28L84,142.31a7.61,7.61,0,0,1,2.34-3.59,6.19,6.19,0,0,1,3.7-1,5.54,5.54,0,0,1,3.23.88,7.39,7.39,0,0,1,2.28,3.59l7.8,21H93.79l-1.63-4.67H82.57l-1.84,4.67ZM91,155,87.55,144.8h-.12L83.82,155Zm57-11.88-3.48,1.75c-1-2.59-2.38-4.08-5.2-4-3.91.1-5,5.23-4.92,8.49.07,3.64.75,7.82,4.65,8a4,4,0,0,0,4.36-3.91v-.63h-2.5v-4h10.19v22.76H36.38v-5.12h107v-7.36c-3.35,2.22-7.9,2.08-11.64.27a10.41,10.41,0,0,1-6.09-9.63c0-7,4.58-12.14,11.57-12.14,4.62,0,8.77,1,10.75,5.49M94.67,28.44a159.85,159.85,0,0,1,25.48,2,189.28,189.28,0,0,0-20.88-1.16c-31.13,0-54.94,7-55.82,15.71-2.08,20.45,84,23.16,108.62,8.68-6.6,8.68-29.85,15.13-57.4,15.13C62,68.76,35.39,59.7,35.39,48.6S62,28.44,94.67,28.44m57.39,76c-11.15,7.22-29.18,13-49.83,15.06-35.37,3.57-65.36-4.94-66.78-19a12.35,12.35,0,0,1,2.16-7.89c0,.29,0,.59,0,.88,1.08,14,32.85,23.12,70.74,20.23,16.78-1.28,32-4.7,43.69-9.33"/></svg>