<svg width="115" height="19" viewBox="0 0 115 19" fill="none" xmlns="http://www.w3.org/2000/svg">
<path d="M19.8077 9.74379C19.8077 11.0043 19.5734 12.1968 19.1029 13.3231C18.6323 14.4475 17.9557 15.4359 17.0732 16.2882C16.1567 17.1631 15.1248 17.834 13.9758 18.3008C12.8268 18.7657 11.6381 19 10.4098 19C9.33259 19 8.27808 18.8167 7.24625 18.452C6.21442 18.0873 5.26763 17.5619 4.40966 16.8797C3.30035 15.9953 2.45182 14.9389 1.86221 13.7105C1.2707 12.4783 0.975891 11.1574 0.975891 9.74379C0.975891 8.47574 1.20834 7.28327 1.67512 6.17207C2.1419 5.06087 2.82412 4.06872 3.72366 3.20131C4.6062 2.34145 5.63425 1.67624 6.80214 1.2019C7.97004 0.727558 9.17384 0.491333 10.4117 0.491333C11.6495 0.491333 12.8363 0.727558 13.9966 1.2019C15.1569 1.67624 16.1831 2.34334 17.0751 3.20131C17.9671 4.06872 18.6455 5.06087 19.1123 6.17774C19.5791 7.29461 19.8115 8.4833 19.8115 9.74379H19.8077ZM10.4098 15.6343C12.0085 15.6343 13.3276 15.073 14.367 13.9543C15.4064 12.8336 15.928 11.4295 15.928 9.74379C15.928 8.05809 15.4026 6.6672 14.35 5.52576C13.2974 4.38432 11.984 3.81549 10.4098 3.81549C8.83557 3.81549 7.48625 4.38432 6.43363 5.52009C5.38101 6.65775 4.85565 8.06376 4.85565 9.74379C4.85565 11.4238 5.37346 12.8544 6.40907 13.9675C7.44468 15.0806 8.77887 15.6362 10.4098 15.6362V15.6343Z" fill="#584475"/>
<path d="M28.3931 9.7438C28.3931 11.0043 28.1588 12.1968 27.6882 13.3231C27.2177 14.4475 26.5411 15.4359 25.6586 16.2882C24.742 17.1632 23.7102 17.834 22.5612 18.3008C21.4122 18.7657 20.2235 19 18.9951 19C17.9179 19 16.8634 18.8167 15.8316 18.452C14.7998 18.0873 13.853 17.5619 12.995 16.8797C11.8857 15.9953 11.0372 14.9389 10.4476 13.7105C9.85795 12.4821 9.56125 11.1593 9.56125 9.74569C9.56125 8.47763 9.7937 7.28517 10.2605 6.17396C10.7273 5.06276 11.4095 4.07062 12.309 3.2032C13.1916 2.34334 14.2196 1.67813 15.3875 1.20379C16.5554 0.72945 17.7592 0.493225 18.997 0.493225C20.2348 0.493225 21.4197 0.72945 22.582 1.20379C23.7423 1.67813 24.7685 2.34523 25.6605 3.2032C26.5524 4.07062 27.2309 5.06276 27.6977 6.17963C28.1626 7.2965 28.3969 8.48519 28.3969 9.74569L28.3931 9.7438ZM18.9951 15.6343C20.5939 15.6343 21.913 15.073 22.9524 13.9543C23.9918 12.8336 24.5133 11.4295 24.5133 9.7438C24.5133 8.05809 23.988 6.6672 22.9354 5.52576C21.8827 4.38432 20.5693 3.81549 18.9951 3.81549C17.4209 3.81549 16.0716 4.38432 15.019 5.52009C13.9664 6.65775 13.441 8.06376 13.441 9.7438C13.441 11.4238 13.9588 12.8544 14.9944 13.9675C16.03 15.0806 17.3642 15.6362 18.9951 15.6362V15.6343Z" fill="#584475"/>
<path d="M38.1483 11.2502C38.1483 11.0659 38.1194 10.9032 38.0615 10.7622C38.0073 10.6176 37.9097 10.4875 37.7687 10.3718C37.6314 10.2561 37.4398 10.1459 37.1939 10.041C36.9517 9.93618 36.6445 9.82954 36.2721 9.72109C35.8817 9.60541 35.5292 9.47708 35.2147 9.3361C34.9002 9.1915 34.6309 9.02701 34.4068 8.84265C34.1827 8.65829 34.011 8.44681 33.8917 8.20822C33.7724 7.96963 33.7127 7.6967 33.7127 7.38943C33.7127 7.08216 33.776 6.79838 33.9025 6.5381C34.029 6.27782 34.2098 6.05189 34.4448 5.86029C34.6833 5.66508 34.9671 5.51325 35.2961 5.4048C35.625 5.29636 35.992 5.24213 36.3968 5.24213C36.9897 5.24213 37.4922 5.356 37.9043 5.58375C38.32 5.80787 38.6363 6.1025 38.8532 6.46761C39.0701 6.82911 39.1786 7.21591 39.1786 7.62802H38.1375C38.1375 7.33159 38.0742 7.0695 37.9477 6.84176C37.8211 6.6104 37.6296 6.42965 37.3729 6.29951C37.1162 6.16576 36.7909 6.09888 36.3968 6.09888C36.0245 6.09888 35.7172 6.15491 35.475 6.26698C35.2328 6.37904 35.0521 6.53087 34.9328 6.72246C34.8171 6.91406 34.7593 7.13277 34.7593 7.37858C34.7593 7.54487 34.7936 7.6967 34.8623 7.83407C34.9346 7.96783 35.0448 8.09254 35.1931 8.20822C35.3449 8.3239 35.5365 8.43054 35.7678 8.52815C36.0028 8.62575 36.283 8.71974 36.6083 8.81012C37.0566 8.93664 37.4434 9.07762 37.7687 9.23307C38.0941 9.38851 38.3616 9.56384 38.5713 9.75905C38.7845 9.95064 38.9418 10.1693 39.043 10.4152C39.1478 10.6574 39.2003 10.9321 39.2003 11.2394C39.2003 11.5611 39.1352 11.8521 39.0051 12.1124C38.8749 12.3727 38.6887 12.595 38.4465 12.7794C38.2043 12.9637 37.9133 13.1065 37.5735 13.2077C37.2373 13.3053 36.8614 13.3541 36.4456 13.3541C36.0805 13.3541 35.7208 13.3035 35.3666 13.2023C35.0159 13.1011 34.696 12.9493 34.4068 12.7468C34.1212 12.5444 33.8917 12.295 33.7181 11.9985C33.5482 11.6985 33.4633 11.3514 33.4633 10.9574H34.5044C34.5044 11.2285 34.5568 11.4617 34.6617 11.6569C34.7665 11.8485 34.9093 12.0076 35.09 12.1341C35.2744 12.2606 35.4823 12.3546 35.7136 12.4161C35.9486 12.4739 36.1926 12.5028 36.4456 12.5028C36.8108 12.5028 37.1198 12.4522 37.3729 12.351C37.6259 12.2498 37.8175 12.1052 37.9477 11.9172C38.0814 11.7292 38.1483 11.5069 38.1483 11.2502ZM41.4723 7.37858V13.2457H40.4637V7.37858H41.4723ZM40.3878 5.82233C40.3878 5.65966 40.4366 5.52229 40.5342 5.41023C40.6354 5.29816 40.7836 5.24213 40.9788 5.24213C41.1704 5.24213 41.3168 5.29816 41.4181 5.41023C41.5229 5.52229 41.5753 5.65966 41.5753 5.82233C41.5753 5.97778 41.5229 6.11153 41.4181 6.2236C41.3168 6.33205 41.1704 6.38627 40.9788 6.38627C40.7836 6.38627 40.6354 6.33205 40.5342 6.2236C40.4366 6.11153 40.3878 5.97778 40.3878 5.82233ZM46.4989 11.6894C46.4989 11.5448 46.4664 11.4111 46.4013 11.2882C46.3398 11.1617 46.2115 11.0478 46.0163 10.9466C45.8247 10.8417 45.5355 10.7514 45.1487 10.6754C44.8234 10.6068 44.5287 10.5254 44.2648 10.4314C44.0046 10.3374 43.7822 10.2236 43.5979 10.0898C43.4171 9.95606 43.278 9.79881 43.1804 9.61806C43.0828 9.43732 43.0339 9.22584 43.0339 8.98364C43.0339 8.75228 43.0846 8.53357 43.1858 8.32752C43.2906 8.12146 43.437 7.93891 43.625 7.77985C43.8166 7.62079 44.0461 7.49607 44.3137 7.4057C44.5812 7.31532 44.8794 7.27013 45.2084 7.27013C45.6783 7.27013 46.0796 7.35328 46.4121 7.51957C46.7447 7.68586 46.9996 7.90818 47.1767 8.18653C47.3538 8.46127 47.4424 8.76674 47.4424 9.10293H46.4393C46.4393 8.94026 46.3905 8.783 46.2929 8.63117C46.1989 8.47573 46.0597 8.3474 45.8753 8.24618C45.6946 8.14496 45.4723 8.09435 45.2084 8.09435C44.93 8.09435 44.7041 8.13773 44.5306 8.22449C44.3606 8.30763 44.2359 8.41428 44.1564 8.54441C44.0805 8.67455 44.0425 8.81192 44.0425 8.95652C44.0425 9.06497 44.0606 9.16258 44.0968 9.24934C44.1365 9.33248 44.2052 9.4102 44.3028 9.4825C44.4004 9.55119 44.5378 9.61626 44.7149 9.67771C44.892 9.73917 45.118 9.80062 45.3927 9.86208C45.8735 9.97052 46.2694 10.1007 46.5802 10.2525C46.8911 10.4043 47.1225 10.5905 47.2743 10.811C47.4261 11.0315 47.5021 11.299 47.5021 11.6135C47.5021 11.8702 47.4478 12.1052 47.3394 12.3185C47.2346 12.5317 47.0809 12.7161 46.8785 12.8715C46.6797 13.0234 46.4411 13.1427 46.1627 13.2294C45.888 13.3126 45.5789 13.3541 45.2355 13.3541C44.7185 13.3541 44.2811 13.262 43.9232 13.0776C43.5654 12.8932 43.2942 12.6546 43.1099 12.3618C42.9255 12.069 42.8333 11.7599 42.8333 11.4346H43.8419C43.8564 11.7093 43.9359 11.928 44.0805 12.0907C44.2251 12.2498 44.4022 12.3636 44.6119 12.4323C44.8216 12.4974 45.0294 12.5299 45.2355 12.5299C45.5102 12.5299 45.7398 12.4938 45.9241 12.4215C46.1121 12.3492 46.2549 12.2498 46.3525 12.1232C46.4501 11.9967 46.4989 11.8521 46.4989 11.6894ZM51.2761 7.37858V8.14857H48.104V7.37858H51.2761ZM49.1776 5.95247H50.1808V11.7925C50.1808 11.9913 50.2115 12.1413 50.2729 12.2425C50.3344 12.3438 50.4139 12.4106 50.5115 12.4432C50.6091 12.4757 50.714 12.492 50.826 12.492C50.9092 12.492 50.9959 12.4847 51.0863 12.4703C51.1803 12.4522 51.2508 12.4377 51.2978 12.4269L51.3032 13.2457C51.2237 13.271 51.1189 13.2945 50.9887 13.3162C50.8622 13.3415 50.7086 13.3541 50.5278 13.3541C50.282 13.3541 50.056 13.3053 49.85 13.2077C49.6439 13.1101 49.4795 12.9475 49.3565 12.7197C49.2373 12.4884 49.1776 12.1775 49.1776 11.7871V5.95247ZM54.8875 13.3541C54.479 13.3541 54.1084 13.2855 53.7759 13.1481C53.4469 13.0071 53.1631 12.8101 52.9245 12.557C52.6896 12.304 52.5088 12.004 52.3823 11.6569C52.2558 11.3099 52.1925 10.9303 52.1925 10.5182V10.2905C52.1925 9.81327 52.263 9.38851 52.404 9.01617C52.545 8.64021 52.7366 8.32209 52.9788 8.06182C53.221 7.80154 53.4957 7.60452 53.803 7.47077C54.1102 7.33701 54.4284 7.27013 54.7573 7.27013C55.1767 7.27013 55.5382 7.34243 55.8418 7.48703C56.1491 7.63163 56.4003 7.83407 56.5955 8.09435C56.7908 8.35101 56.9354 8.65467 57.0293 9.00532C57.1233 9.35236 57.1703 9.73194 57.1703 10.144V10.5941H52.789V9.77532H56.1672V9.6994C56.1527 9.43912 56.0985 9.18607 56.0045 8.94026C55.9141 8.69444 55.7695 8.492 55.5707 8.33294C55.3719 8.17388 55.1008 8.09435 54.7573 8.09435C54.5296 8.09435 54.3199 8.14315 54.1283 8.24076C53.9367 8.33475 53.7722 8.47573 53.6349 8.66371C53.4975 8.85169 53.3909 9.08124 53.315 9.35236C53.239 9.62349 53.2011 9.93618 53.2011 10.2905V10.5182C53.2011 10.7965 53.239 11.0586 53.315 11.3045C53.3945 11.5467 53.5084 11.7599 53.6566 11.9443C53.8084 12.1287 53.991 12.2733 54.2042 12.3781C54.4211 12.4829 54.667 12.5354 54.9417 12.5354C55.296 12.5354 55.596 12.4631 55.8418 12.3185C56.0876 12.1739 56.3027 11.9805 56.4871 11.7383L57.0944 12.2209C56.9679 12.4124 56.807 12.595 56.6118 12.7685C56.4166 12.942 56.1762 13.083 55.8906 13.1915C55.6087 13.2999 55.2743 13.3541 54.8875 13.3541ZM59.3393 8.54441V13.2457H58.3307V7.37858H59.2851L59.3393 8.54441ZM59.1333 10.0898L58.6669 10.0736C58.6705 9.67229 58.723 9.30175 58.8242 8.96195C58.9254 8.61852 59.0754 8.32029 59.2742 8.06724C59.4731 7.81419 59.7207 7.61898 60.0171 7.48161C60.3136 7.34063 60.657 7.27013 61.0474 7.27013C61.3221 7.27013 61.5752 7.3099 61.8065 7.38943C62.0379 7.46534 62.2385 7.58645 62.4084 7.75273C62.5783 7.91902 62.7103 8.13231 62.8043 8.39259C62.8983 8.65286 62.9453 8.96737 62.9453 9.3361V13.2457H61.9421V9.3849C61.9421 9.07762 61.8897 8.83181 61.7849 8.64744C61.6836 8.46308 61.539 8.32932 61.3511 8.24618C61.1631 8.15942 60.9426 8.11604 60.6895 8.11604C60.3931 8.11604 60.1455 8.16846 59.9466 8.27329C59.7478 8.37813 59.5887 8.52273 59.4695 8.70709C59.3502 8.89145 59.2634 9.10293 59.2092 9.34152C59.1586 9.57649 59.1333 9.82593 59.1333 10.0898ZM62.9344 9.53673L62.262 9.74278C62.2656 9.42105 62.3181 9.11197 62.4193 8.81554C62.5241 8.51911 62.6741 8.25522 62.8693 8.02386C63.0682 7.7925 63.3122 7.60994 63.6014 7.47619C63.8906 7.33882 64.2213 7.27013 64.5937 7.27013C64.9082 7.27013 65.1865 7.31171 65.4288 7.39485C65.6746 7.478 65.8806 7.60633 66.0469 7.77985C66.2168 7.94975 66.3451 8.16846 66.4319 8.43597C66.5187 8.70347 66.562 9.02159 66.562 9.39032V13.2457H65.5535V9.37948C65.5535 9.05051 65.5011 8.79566 65.3962 8.61491C65.295 8.43054 65.1504 8.30221 64.9624 8.22991C64.7781 8.154 64.5575 8.11604 64.3009 8.11604C64.0804 8.11604 63.8852 8.154 63.7152 8.22991C63.5453 8.30583 63.4026 8.41066 63.2869 8.54441C63.1712 8.67455 63.0826 8.82458 63.0212 8.99448C62.9633 9.16438 62.9344 9.34513 62.9344 9.53673ZM71.5399 12.2425V9.22222C71.5399 8.99087 71.4929 8.79023 71.3989 8.62033C71.3085 8.44681 71.1711 8.31306 70.9868 8.21907C70.8024 8.12508 70.5747 8.07808 70.3036 8.07808C70.0505 8.07808 69.8282 8.12146 69.6366 8.20822C69.4486 8.29498 69.3004 8.40885 69.1919 8.54984C69.0871 8.69082 69.0347 8.84265 69.0347 9.00532H68.0315C68.0315 8.79566 68.0858 8.58779 68.1942 8.38174C68.3027 8.17569 68.4581 7.98952 68.6605 7.82323C68.8666 7.65332 69.1124 7.51957 69.398 7.42196C69.6872 7.32074 70.0089 7.27013 70.3632 7.27013C70.7898 7.27013 71.1657 7.34243 71.4911 7.48703C71.82 7.63163 72.0767 7.85034 72.2611 8.14315C72.449 8.43235 72.543 8.79566 72.543 9.23307V11.966C72.543 12.1612 72.5593 12.3691 72.5918 12.5896C72.628 12.8101 72.6804 12.9999 72.7491 13.1589V13.2457H71.7025C71.6519 13.13 71.6122 12.9764 71.5833 12.7848C71.5543 12.5896 71.5399 12.4088 71.5399 12.2425ZM71.7134 9.68856L71.7242 10.3935H70.7102C70.4247 10.3935 70.1698 10.417 69.9457 10.464C69.7215 10.5073 69.5336 10.5742 69.3817 10.6646C69.2299 10.755 69.1142 10.8688 69.0347 11.0062C68.9552 11.14 68.9154 11.2972 68.9154 11.478C68.9154 11.6623 68.957 11.8304 69.0401 11.9823C69.1233 12.1341 69.248 12.2552 69.4143 12.3456C69.5842 12.4323 69.792 12.4757 70.0378 12.4757C70.3451 12.4757 70.6162 12.4106 70.8512 12.2805C71.0862 12.1504 71.2724 11.9913 71.4097 11.8033C71.5507 11.6153 71.6266 11.4328 71.6375 11.2557L72.0659 11.7383C72.0405 11.8901 71.9719 12.0582 71.8598 12.2425C71.7477 12.4269 71.5977 12.604 71.4097 12.7739C71.2254 12.9402 71.0049 13.0794 70.7482 13.1915C70.4951 13.2999 70.2096 13.3541 69.8914 13.3541C69.4938 13.3541 69.1449 13.2764 68.8449 13.121C68.5485 12.9655 68.3171 12.7577 68.1508 12.4974C67.9882 12.2335 67.9068 11.9389 67.9068 11.6135C67.9068 11.299 67.9683 11.0225 68.0912 10.7839C68.2141 10.5417 68.3912 10.3411 68.6226 10.182C68.8539 10.0193 69.1323 9.89642 69.4576 9.81327C69.783 9.73013 70.1463 9.68856 70.5476 9.68856H71.7134ZM81.7938 10.7351H82.8349C82.7807 11.234 82.6379 11.6804 82.4065 12.0744C82.1751 12.4685 81.848 12.7812 81.425 13.0125C81.0021 13.2403 80.4743 13.3541 79.8417 13.3541C79.379 13.3541 78.9578 13.2674 78.5782 13.0939C78.2023 12.9203 77.8787 12.6745 77.6076 12.3564C77.3365 12.0347 77.1268 11.6497 76.9786 11.2014C76.834 10.7496 76.7617 10.2471 76.7617 9.69398V8.90772C76.7617 8.35463 76.834 7.85395 76.9786 7.4057C77.1268 6.95382 77.3383 6.56702 77.613 6.24529C77.8914 5.92355 78.2258 5.67593 78.6162 5.50241C79.0066 5.32889 79.4458 5.24213 79.9339 5.24213C80.5303 5.24213 81.0346 5.35419 81.4467 5.57832C81.8588 5.80245 82.1788 6.11334 82.4065 6.51099C82.6379 6.90502 82.7807 7.36232 82.8349 7.88287H81.7938C81.7432 7.51415 81.6492 7.19783 81.5118 6.93394C81.3744 6.66643 81.1792 6.46038 80.9262 6.31578C80.6731 6.17118 80.3424 6.09888 79.9339 6.09888C79.5832 6.09888 79.2741 6.16576 79.0066 6.29951C78.7427 6.43327 78.5204 6.62305 78.3397 6.86887C78.1625 7.11469 78.0288 7.40931 77.9384 7.75273C77.848 8.09616 77.8028 8.47754 77.8028 8.89688V9.69398C77.8028 10.0808 77.8426 10.4441 77.9221 10.7839C78.0053 11.1237 78.13 11.4219 78.2963 11.6786C78.4626 11.9353 78.674 12.1377 78.9307 12.2859C79.1874 12.4305 79.491 12.5028 79.8417 12.5028C80.2863 12.5028 80.6406 12.4323 80.9045 12.2913C81.1684 12.1504 81.3672 11.9479 81.501 11.684C81.6383 11.4201 81.7359 11.1038 81.7938 10.7351ZM83.8435 10.3772V10.2525C83.8435 9.82954 83.9049 9.43732 84.0278 9.07582C84.1507 8.7107 84.3279 8.39439 84.5592 8.12688C84.7906 7.85576 85.0707 7.64609 85.3997 7.49788C85.7287 7.34605 86.0974 7.27013 86.5059 7.27013C86.918 7.27013 87.2885 7.34605 87.6175 7.49788C87.9501 7.64609 88.232 7.85576 88.4634 8.12688C88.6984 8.39439 88.8773 8.7107 89.0002 9.07582C89.1231 9.43732 89.1846 9.82954 89.1846 10.2525V10.3772C89.1846 10.8002 89.1231 11.1924 89.0002 11.5539C88.8773 11.9154 88.6984 12.2317 88.4634 12.5028C88.232 12.7703 87.9519 12.98 87.6229 13.1318C87.2976 13.28 86.9288 13.3541 86.5167 13.3541C86.1046 13.3541 85.7341 13.28 85.4051 13.1318C85.0762 12.98 84.7942 12.7703 84.5592 12.5028C84.3279 12.2317 84.1507 11.9154 84.0278 11.5539C83.9049 11.1924 83.8435 10.8002 83.8435 10.3772ZM84.8466 10.2525V10.3772C84.8466 10.67 84.881 10.9466 84.9496 11.2068C85.0183 11.4635 85.1214 11.6913 85.2587 11.8901C85.3997 12.0889 85.575 12.2462 85.7847 12.3618C85.9944 12.4739 86.2384 12.5299 86.5167 12.5299C86.7915 12.5299 87.0319 12.4739 87.2379 12.3618C87.4476 12.2462 87.6211 12.0889 87.7585 11.8901C87.8959 11.6913 87.9989 11.4635 88.0676 11.2068C88.1399 10.9466 88.176 10.67 88.176 10.3772V10.2525C88.176 9.96329 88.1399 9.69036 88.0676 9.4337C87.9989 9.17342 87.894 8.94387 87.7531 8.74505C87.6157 8.54261 87.4422 8.38355 87.2325 8.26787C87.0265 8.15219 86.7842 8.09435 86.5059 8.09435C86.2312 8.09435 85.989 8.15219 85.7793 8.26787C85.5732 8.38355 85.3997 8.54261 85.2587 8.74505C85.1214 8.94387 85.0183 9.17342 84.9496 9.4337C84.881 9.69036 84.8466 9.96329 84.8466 10.2525ZM90.1769 10.3772V10.2525C90.1769 9.82954 90.2384 9.43732 90.3613 9.07582C90.4842 8.7107 90.6613 8.39439 90.8927 8.12688C91.124 7.85576 91.4042 7.64609 91.7332 7.49788C92.0621 7.34605 92.4308 7.27013 92.8393 7.27013C93.2514 7.27013 93.622 7.34605 93.9509 7.49788C94.2835 7.64609 94.5655 7.85576 94.7969 8.12688C95.0318 8.39439 95.2108 8.7107 95.3337 9.07582C95.4566 9.43732 95.518 9.82954 95.518 10.2525V10.3772C95.518 10.8002 95.4566 11.1924 95.3337 11.5539C95.2108 11.9154 95.0318 12.2317 94.7969 12.5028C94.5655 12.7703 94.2853 12.98 93.9564 13.1318C93.631 13.28 93.2623 13.3541 92.8502 13.3541C92.4381 13.3541 92.0675 13.28 91.7386 13.1318C91.4096 12.98 91.1276 12.7703 90.8927 12.5028C90.6613 12.2317 90.4842 11.9154 90.3613 11.5539C90.2384 11.1924 90.1769 10.8002 90.1769 10.3772ZM91.1801 10.2525V10.3772C91.1801 10.67 91.2144 10.9466 91.2831 11.2068C91.3518 11.4635 91.4548 11.6913 91.5922 11.8901C91.7332 12.0889 91.9085 12.2462 92.1182 12.3618C92.3278 12.4739 92.5718 12.5299 92.8502 12.5299C93.1249 12.5299 93.3653 12.4739 93.5714 12.3618C93.781 12.2462 93.9546 12.0889 94.0919 11.8901C94.2293 11.6913 94.3323 11.4635 94.401 11.2068C94.4733 10.9466 94.5095 10.67 94.5095 10.3772V10.2525C94.5095 9.96329 94.4733 9.69036 94.401 9.4337C94.3323 9.17342 94.2275 8.94387 94.0865 8.74505C93.9491 8.54261 93.7756 8.38355 93.566 8.26787C93.3599 8.15219 93.1177 8.09435 92.8393 8.09435C92.5646 8.09435 92.3224 8.15219 92.1127 8.26787C91.9067 8.38355 91.7332 8.54261 91.5922 8.74505C91.4548 8.94387 91.3518 9.17342 91.2831 9.4337C91.2144 9.69036 91.1801 9.96329 91.1801 10.2525ZM97.7792 8.50646V15.5014H96.7706V7.37858H97.6925L97.7792 8.50646ZM101.732 10.2633V10.3772C101.732 10.8038 101.682 11.1996 101.58 11.5647C101.479 11.9262 101.331 12.2407 101.136 12.5082C100.944 12.7757 100.707 12.9836 100.425 13.1318C100.143 13.28 99.8199 13.3541 99.4548 13.3541C99.0824 13.3541 98.7534 13.2927 98.4679 13.1698C98.1823 13.0469 97.9401 12.8679 97.7413 12.633C97.5424 12.398 97.3834 12.116 97.2641 11.7871C97.1484 11.4581 97.0689 11.0876 97.0255 10.6754V10.0681C97.0689 9.63433 97.1502 9.24572 97.2695 8.9023C97.3888 8.55887 97.546 8.26606 97.7413 8.02386C97.9401 7.77804 98.1805 7.59187 98.4624 7.46534C98.7444 7.3352 99.0698 7.27013 99.4385 7.27013C99.8072 7.27013 100.134 7.34243 100.42 7.48703C100.706 7.62802 100.946 7.83046 101.141 8.09435C101.336 8.35824 101.483 8.67455 101.58 9.04328C101.682 9.4084 101.732 9.81508 101.732 10.2633ZM100.724 10.3772V10.2633C100.724 9.97052 100.693 9.69579 100.631 9.43912C100.57 9.17884 100.474 8.9511 100.344 8.75589C100.218 8.55707 100.055 8.40162 99.856 8.28956C99.6572 8.17388 99.4204 8.11604 99.1457 8.11604C98.8926 8.11604 98.6721 8.15942 98.4841 8.24618C98.2998 8.33294 98.1425 8.45043 98.0124 8.59864C97.8822 8.74324 97.7756 8.90953 97.6925 9.09751C97.6129 9.28187 97.5533 9.47346 97.5135 9.67229V11.0767C97.5858 11.3298 97.687 11.5683 97.8172 11.7925C97.9473 12.013 98.1208 12.1919 98.3377 12.3293C98.5546 12.4631 98.8276 12.5299 99.1565 12.5299C99.4276 12.5299 99.6608 12.4739 99.856 12.3618C100.055 12.2462 100.218 12.0889 100.344 11.8901C100.474 11.6913 100.57 11.4635 100.631 11.2068C100.693 10.9466 100.724 10.67 100.724 10.3772ZM105.447 13.3541C105.038 13.3541 104.668 13.2855 104.335 13.1481C104.006 13.0071 103.722 12.8101 103.484 12.557C103.249 12.304 103.068 12.004 102.941 11.6569C102.815 11.3099 102.752 10.9303 102.752 10.5182V10.2905C102.752 9.81327 102.822 9.38851 102.963 9.01617C103.104 8.64021 103.296 8.32209 103.538 8.06182C103.78 7.80154 104.055 7.60452 104.362 7.47077C104.669 7.33701 104.987 7.27013 105.316 7.27013C105.736 7.27013 106.097 7.34243 106.401 7.48703C106.708 7.63163 106.959 7.83407 107.155 8.09435C107.35 8.35101 107.494 8.65467 107.588 9.00532C107.682 9.35236 107.729 9.73194 107.729 10.144V10.5941H103.348V9.77532H106.726V9.6994C106.712 9.43912 106.658 9.18607 106.564 8.94026C106.473 8.69444 106.329 8.492 106.13 8.33294C105.931 8.17388 105.66 8.09435 105.316 8.09435C105.089 8.09435 104.879 8.14315 104.687 8.24076C104.496 8.33475 104.331 8.47573 104.194 8.66371C104.057 8.85169 103.95 9.08124 103.874 9.35236C103.798 9.62349 103.76 9.93618 103.76 10.2905V10.5182C103.76 10.7965 103.798 11.0586 103.874 11.3045C103.954 11.5467 104.067 11.7599 104.216 11.9443C104.368 12.1287 104.55 12.2733 104.763 12.3781C104.98 12.4829 105.226 12.5354 105.501 12.5354C105.855 12.5354 106.155 12.4631 106.401 12.3185C106.647 12.1739 106.862 11.9805 107.046 11.7383L107.654 12.2209C107.527 12.4124 107.366 12.595 107.171 12.7685C106.976 12.942 106.735 13.083 106.45 13.1915C106.168 13.2999 105.833 13.3541 105.447 13.3541ZM109.579 7.37858L110.864 9.51504L112.165 7.37858H113.342L111.422 10.2742L113.401 13.2457H112.241L110.885 11.0442L109.53 13.2457H108.364L110.338 10.2742L108.424 7.37858H109.579Z" fill="#584475"/>
</svg>
