<svg width="114" height="19" viewBox="0 0 114 19" fill="none" xmlns="http://www.w3.org/2000/svg">
<path d="M18.8319 9.25246C18.8319 10.513 18.5975 11.7054 18.127 12.8317C17.6564 13.9562 16.9799 14.9445 16.0973 15.7968C15.1808 16.6718 14.1489 17.3427 12.9999 17.8095C11.8509 18.2744 10.6623 18.5087 9.43388 18.5087C8.3567 18.5087 7.30219 18.3254 6.27036 17.9607C5.23853 17.5959 4.29174 17.0706 3.43377 16.3883C2.32445 15.5039 1.47593 14.4475 0.886316 13.2192C0.294809 11.987 0 10.666 0 9.25246C0 7.98441 0.232445 6.79194 0.699226 5.68074C1.16601 4.56954 1.84822 3.57739 2.74777 2.70997C3.63031 1.85011 4.65836 1.1849 5.82625 0.710565C6.99415 0.236225 8.19795 0 9.43577 0C10.6736 0 11.8604 0.236225 13.0207 0.710565C14.1811 1.1849 15.2072 1.852 16.0992 2.70997C16.9912 3.57739 17.6696 4.56954 18.1364 5.68641C18.6032 6.80328 18.8356 7.99196 18.8356 9.25246H18.8319ZM9.43388 15.143C11.0327 15.143 12.3517 14.5817 13.3911 13.4629C14.4305 12.3423 14.9521 10.9382 14.9521 9.25246C14.9521 7.56676 14.4267 6.17587 13.3741 5.03443C12.3215 3.89299 11.0081 3.32416 9.43388 3.32416C7.85968 3.32416 6.51036 3.89299 5.45774 5.02876C4.40512 6.16642 3.87976 7.57243 3.87976 9.25246C3.87976 10.9325 4.39756 12.3631 5.43318 13.4762C6.46879 14.5893 7.80298 15.1449 9.43388 15.1449V15.143Z" fill="white"/>
<path d="M27.4172 9.25246C27.4172 10.513 27.1829 11.7054 26.7123 12.8317C26.2418 13.9562 25.5652 14.9445 24.6827 15.7968C23.7661 16.6718 22.7343 17.3427 21.5853 17.8095C20.4363 18.2744 19.2476 18.5087 18.0192 18.5087C16.9421 18.5087 15.8875 18.3254 14.8557 17.9607C13.8239 17.5959 12.8771 17.0706 12.0191 16.3883C10.9098 15.5039 10.0613 14.4475 9.47167 13.2192C8.88206 11.9908 8.58536 10.6679 8.58536 9.25435C8.58536 7.9863 8.8178 6.79383 9.28458 5.68263C9.75136 4.57143 10.4336 3.57928 11.3331 2.71187C12.2157 1.85201 13.2437 1.1868 14.4116 0.712457C15.5795 0.238117 16.7833 0.00189209 18.0211 0.00189209C19.2589 0.00189209 20.4439 0.238117 21.6061 0.712457C22.7664 1.1868 23.7926 1.8539 24.6846 2.71187C25.5765 3.57928 26.255 4.57143 26.7218 5.6883C27.1867 6.80517 27.421 7.99386 27.421 9.25435L27.4172 9.25246ZM18.0192 15.143C19.618 15.143 20.9371 14.5817 21.9765 13.4629C23.0159 12.3423 23.5375 10.9382 23.5375 9.25246C23.5375 7.56676 23.0121 6.17587 21.9595 5.03443C20.9069 3.89299 19.5934 3.32416 18.0192 3.32416C16.445 3.32416 15.0957 3.89299 14.0431 5.02876C12.9905 6.16642 12.4651 7.57243 12.4651 9.25246C12.4651 10.9325 12.9829 12.3631 14.0185 13.4762C15.0541 14.5893 16.3883 15.1449 18.0192 15.1449V15.143Z" fill="white"/>
<path d="M37.1724 10.7589C37.1724 10.5745 37.1435 10.4119 37.0856 10.2709C37.0314 10.1263 36.9338 9.99613 36.7928 9.88045C36.6555 9.76478 36.4639 9.65452 36.2181 9.54968C35.9758 9.44485 35.6686 9.33821 35.2962 9.22976C34.9058 9.11408 34.5534 8.98575 34.2389 8.84476C33.9243 8.70016 33.655 8.53568 33.4309 8.35132C33.2068 8.16695 33.0351 7.95548 32.9158 7.71689C32.7965 7.4783 32.7368 7.20537 32.7368 6.8981C32.7368 6.59082 32.8001 6.30705 32.9266 6.04677C33.0531 5.78649 33.2339 5.56055 33.4689 5.36896C33.7074 5.17375 33.9912 5.02192 34.3202 4.91347C34.6492 4.80502 35.0161 4.7508 35.4209 4.7508C36.0138 4.7508 36.5163 4.86467 36.9284 5.09241C37.3441 5.31654 37.6604 5.61116 37.8773 5.97628C38.0942 6.33777 38.2027 6.72458 38.2027 7.13668H37.1616C37.1616 6.84026 37.0983 6.57817 36.9718 6.35043C36.8453 6.11907 36.6537 5.93832 36.397 5.80818C36.1403 5.67442 35.815 5.60755 35.4209 5.60755C35.0486 5.60755 34.7413 5.66358 34.4991 5.77564C34.2569 5.88771 34.0762 6.03954 33.9569 6.23113C33.8412 6.42273 33.7834 6.64143 33.7834 6.88725C33.7834 7.05354 33.8177 7.20537 33.8864 7.34274C33.9587 7.47649 34.0689 7.60121 34.2172 7.71689C34.369 7.83257 34.5606 7.93921 34.7919 8.03681C35.0269 8.13442 35.3071 8.22841 35.6324 8.31878C36.0807 8.44531 36.4675 8.58629 36.7928 8.74174C37.1182 8.89718 37.3857 9.07251 37.5954 9.26772C37.8086 9.45931 37.9659 9.67802 38.0671 9.92383C38.1719 10.166 38.2244 10.4408 38.2244 10.748C38.2244 11.0698 38.1593 11.3608 38.0292 11.6211C37.899 11.8813 37.7128 12.1037 37.4706 12.288C37.2284 12.4724 36.9374 12.6152 36.5976 12.7164C36.2614 12.814 35.8855 12.8628 35.4698 12.8628C35.1046 12.8628 34.7449 12.8122 34.3907 12.711C34.04 12.6098 33.7201 12.4579 33.4309 12.2555C33.1453 12.0531 32.9158 11.8036 32.7422 11.5072C32.5723 11.2072 32.4874 10.8601 32.4874 10.4661H33.5285C33.5285 10.7372 33.5809 10.9704 33.6858 11.1656C33.7906 11.3572 33.9334 11.5162 34.1141 11.6428C34.2985 11.7693 34.5064 11.8633 34.7377 11.9247C34.9727 11.9826 35.2167 12.0115 35.4698 12.0115C35.8349 12.0115 36.1439 11.9609 36.397 11.8597C36.65 11.7584 36.8416 11.6138 36.9718 11.4259C37.1055 11.2379 37.1724 11.0156 37.1724 10.7589ZM40.4964 6.88725V12.7544H39.4878V6.88725H40.4964ZM39.4119 5.331C39.4119 5.16833 39.4607 5.03096 39.5583 4.91889C39.6595 4.80683 39.8077 4.7508 40.0029 4.7508C40.1945 4.7508 40.3409 4.80683 40.4422 4.91889C40.547 5.03096 40.5994 5.16833 40.5994 5.331C40.5994 5.48645 40.547 5.6202 40.4422 5.73226C40.3409 5.84071 40.1945 5.89494 40.0029 5.89494C39.8077 5.89494 39.6595 5.84071 39.5583 5.73226C39.4607 5.6202 39.4119 5.48645 39.4119 5.331ZM45.523 11.1981C45.523 11.0535 45.4905 10.9198 45.4254 10.7969C45.364 10.6703 45.2356 10.5565 45.0404 10.4552C44.8488 10.3504 44.5596 10.26 44.1728 10.1841C43.8475 10.1154 43.5528 10.0341 43.289 9.9401C43.0287 9.84611 42.8064 9.73224 42.622 9.59849C42.4412 9.46473 42.3021 9.30748 42.2045 9.12673C42.1069 8.94598 42.0581 8.73451 42.0581 8.4923C42.0581 8.26094 42.1087 8.04224 42.2099 7.83618C42.3147 7.63013 42.4611 7.44757 42.6491 7.28851C42.8407 7.12945 43.0702 7.00474 43.3378 6.91436C43.6053 6.82399 43.9035 6.7788 44.2325 6.7788C44.7024 6.7788 45.1037 6.86195 45.4363 7.02824C45.7688 7.19452 46.0237 7.41685 46.2008 7.6952C46.378 7.96994 46.4665 8.2754 46.4665 8.6116H45.4634C45.4634 8.44892 45.4146 8.29167 45.317 8.13984C45.223 7.9844 45.0838 7.85607 44.8994 7.75485C44.7187 7.65363 44.4964 7.60302 44.2325 7.60302C43.9541 7.60302 43.7282 7.6464 43.5547 7.73316C43.3848 7.8163 43.26 7.92294 43.1805 8.05308C43.1046 8.18322 43.0666 8.32059 43.0666 8.46519C43.0666 8.57364 43.0847 8.67124 43.1209 8.758C43.1606 8.84115 43.2293 8.91887 43.3269 8.99117C43.4245 9.05985 43.5619 9.12492 43.739 9.18638C43.9162 9.24783 44.1421 9.30929 44.4168 9.37074C44.8976 9.47919 45.2935 9.60933 45.6043 9.76116C45.9152 9.91299 46.1466 10.0992 46.2984 10.3197C46.4503 10.5402 46.5262 10.8077 46.5262 11.1222C46.5262 11.3789 46.4719 11.6138 46.3635 11.8271C46.2587 12.0404 46.105 12.2248 45.9026 12.3802C45.7038 12.532 45.4652 12.6513 45.1868 12.7381C44.9121 12.8212 44.603 12.8628 44.2596 12.8628C43.7426 12.8628 43.3052 12.7706 42.9473 12.5863C42.5895 12.4019 42.3183 12.1633 42.134 11.8705C41.9496 11.5777 41.8574 11.2686 41.8574 10.9433H42.866C42.8805 11.218 42.96 11.4367 43.1046 11.5994C43.2492 11.7584 43.4263 11.8723 43.636 11.941C43.8457 12.0061 44.0535 12.0386 44.2596 12.0386C44.5343 12.0386 44.7639 12.0024 44.9482 11.9301C45.1362 11.8578 45.279 11.7584 45.3766 11.6319C45.4742 11.5054 45.523 11.3608 45.523 11.1981ZM50.3002 6.88725V7.65724H47.1281V6.88725H50.3002ZM48.2017 5.46114H49.2049V11.3011C49.2049 11.5 49.2356 11.65 49.2971 11.7512C49.3585 11.8524 49.438 11.9193 49.5356 11.9518C49.6332 11.9844 49.7381 12.0006 49.8501 12.0006C49.9333 12.0006 50.02 11.9934 50.1104 11.979C50.2044 11.9609 50.2749 11.9464 50.3219 11.9356L50.3273 12.7544C50.2478 12.7797 50.143 12.8032 50.0128 12.8249C49.8863 12.8502 49.7327 12.8628 49.5519 12.8628C49.3061 12.8628 49.0802 12.814 48.8741 12.7164C48.668 12.6188 48.5036 12.4561 48.3807 12.2284C48.2614 11.997 48.2017 11.6861 48.2017 11.2957V5.46114ZM53.9116 12.8628C53.5031 12.8628 53.1325 12.7941 52.8 12.6568C52.471 12.5158 52.1872 12.3188 51.9486 12.0657C51.7137 11.8127 51.5329 11.5126 51.4064 11.1656C51.2799 10.8185 51.2166 10.439 51.2166 10.0269V9.79912C51.2166 9.32194 51.2871 8.89718 51.4281 8.52484C51.5691 8.14888 51.7607 7.83076 52.0029 7.57048C52.2451 7.3102 52.5198 7.11319 52.8271 6.97943C53.1344 6.84568 53.4525 6.7788 53.7814 6.7788C54.2008 6.7788 54.5623 6.8511 54.8659 6.9957C55.1732 7.1403 55.4244 7.34274 55.6197 7.60302C55.8149 7.85968 55.9595 8.16334 56.0534 8.51399C56.1474 8.86103 56.1944 9.2406 56.1944 9.65271V10.1028H51.8131V9.28398H55.1913V9.20807C55.1768 8.94779 55.1226 8.69474 55.0286 8.44892C54.9382 8.2031 54.7936 8.00066 54.5948 7.84161C54.396 7.68255 54.1249 7.60302 53.7814 7.60302C53.5537 7.60302 53.344 7.65182 53.1524 7.74942C52.9608 7.84341 52.7964 7.9844 52.659 8.17238C52.5216 8.36036 52.415 8.58991 52.3391 8.86103C52.2631 9.13215 52.2252 9.44485 52.2252 9.79912V10.0269C52.2252 10.3052 52.2631 10.5673 52.3391 10.8131C52.4186 11.0553 52.5325 11.2686 52.6807 11.453C52.8325 11.6373 53.0151 11.7819 53.2283 11.8868C53.4452 11.9916 53.6911 12.044 53.9658 12.044C54.3201 12.044 54.6201 11.9717 54.8659 11.8271C55.1117 11.6825 55.3268 11.4891 55.5112 11.2469L56.1185 11.7295C55.992 11.9211 55.8311 12.1037 55.6359 12.2772C55.4407 12.4507 55.2003 12.5917 54.9147 12.7001C54.6328 12.8086 54.2984 12.8628 53.9116 12.8628ZM58.3634 8.05308V12.7544H57.3548V6.88725H58.3092L58.3634 8.05308ZM58.1574 9.59849L57.691 9.58222C57.6946 9.18096 57.7471 8.81042 57.8483 8.47061C57.9495 8.12719 58.0995 7.82895 58.2984 7.5759C58.4972 7.32286 58.7448 7.12765 59.0412 6.99028C59.3377 6.84929 59.6811 6.7788 60.0715 6.7788C60.3462 6.7788 60.5993 6.81857 60.8306 6.8981C61.062 6.97401 61.2626 7.09511 61.4325 7.2614C61.6024 7.42769 61.7344 7.64097 61.8284 7.90125C61.9224 8.16153 61.9694 8.47603 61.9694 8.84476V12.7544H60.9662V8.89356C60.9662 8.58629 60.9138 8.34047 60.809 8.15611C60.7077 7.97174 60.5631 7.83799 60.3752 7.75485C60.1872 7.66809 59.9667 7.62471 59.7136 7.62471C59.4172 7.62471 59.1696 7.67712 58.9707 7.78196C58.7719 7.88679 58.6129 8.03139 58.4936 8.21576C58.3743 8.40012 58.2875 8.6116 58.2333 8.85019C58.1827 9.08516 58.1574 9.33459 58.1574 9.59849ZM61.9585 9.04539L61.2861 9.25145C61.2897 8.92971 61.3422 8.62063 61.4434 8.32421C61.5482 8.02778 61.6982 7.76388 61.8934 7.53252C62.0923 7.30117 62.3363 7.11861 62.6255 6.98486C62.9147 6.84749 63.2455 6.7788 63.6178 6.7788C63.9323 6.7788 64.2107 6.82037 64.4529 6.90352C64.6987 6.98666 64.9047 7.11499 65.071 7.28851C65.2409 7.45842 65.3693 7.67712 65.456 7.94463C65.5428 8.21214 65.5862 8.53026 65.5862 8.89899V12.7544H64.5776V8.88814C64.5776 8.55918 64.5252 8.30432 64.4203 8.12357C64.3191 7.93921 64.1745 7.81088 63.9865 7.73858C63.8022 7.66266 63.5816 7.62471 63.325 7.62471C63.1045 7.62471 62.9093 7.66266 62.7394 7.73858C62.5695 7.81449 62.4267 7.91933 62.311 8.05308C62.1953 8.18322 62.1067 8.33324 62.0453 8.50315C61.9874 8.67305 61.9585 8.8538 61.9585 9.04539ZM70.564 11.7512V8.73089C70.564 8.49953 70.517 8.2989 70.423 8.129C70.3326 7.95548 70.1953 7.82172 70.0109 7.72773C69.8265 7.63374 69.5988 7.58675 69.3277 7.58675C69.0746 7.58675 68.8523 7.63013 68.6607 7.71689C68.4727 7.80365 68.3245 7.91752 68.216 8.0585C68.1112 8.19949 68.0588 8.35132 68.0588 8.51399H67.0556C67.0556 8.30432 67.1099 8.09646 67.2183 7.89041C67.3268 7.68435 67.4822 7.49818 67.6846 7.33189C67.8907 7.16199 68.1365 7.02824 68.4221 6.93063C68.7113 6.82941 69.033 6.7788 69.3873 6.7788C69.8139 6.7788 70.1898 6.8511 70.5152 6.9957C70.8441 7.1403 71.1008 7.35901 71.2852 7.65182C71.4731 7.94102 71.5671 8.30432 71.5671 8.74174V11.4747C71.5671 11.6699 71.5834 11.8777 71.6159 12.0982C71.6521 12.3188 71.7045 12.5085 71.7732 12.6676V12.7544H70.7267C70.676 12.6387 70.6363 12.485 70.6074 12.2935C70.5784 12.0982 70.564 11.9175 70.564 11.7512ZM70.7375 9.19722L70.7483 9.90214H69.7343C69.4488 9.90214 69.1939 9.92564 68.9698 9.97264C68.7456 10.016 68.5577 10.0829 68.4058 10.1733C68.254 10.2636 68.1383 10.3775 68.0588 10.5149C67.9793 10.6486 67.9395 10.8059 67.9395 10.9866C67.9395 11.171 67.9811 11.3391 68.0642 11.4909C68.1474 11.6428 68.2721 11.7639 68.4384 11.8542C68.6083 11.941 68.8161 11.9844 69.062 11.9844C69.3692 11.9844 69.6404 11.9193 69.8753 11.7892C70.1103 11.659 70.2965 11.5 70.4338 11.312C70.5748 11.124 70.6507 10.9415 70.6616 10.7643L71.09 11.2469C71.0647 11.3987 70.996 11.5668 70.8839 11.7512C70.7718 11.9356 70.6218 12.1127 70.4338 12.2826C70.2495 12.4489 70.029 12.5881 69.7723 12.7001C69.5192 12.8086 69.2337 12.8628 68.9155 12.8628C68.5179 12.8628 68.1691 12.7851 67.869 12.6296C67.5726 12.4742 67.3412 12.2663 67.1749 12.0061C67.0123 11.7422 66.9309 11.4475 66.9309 11.1222C66.9309 10.8077 66.9924 10.5312 67.1153 10.2926C67.2382 10.0504 67.4153 9.84973 67.6467 9.69067C67.878 9.52799 68.1564 9.40508 68.4818 9.32194C68.8071 9.2388 69.1704 9.19722 69.5717 9.19722H70.7375ZM80.8179 10.2438H81.859C81.8048 10.7426 81.662 11.1891 81.4306 11.5831C81.1993 11.9771 80.8721 12.2898 80.4491 12.5212C80.0262 12.7489 79.4984 12.8628 78.8658 12.8628C78.4031 12.8628 77.9819 12.7761 77.6023 12.6025C77.2264 12.429 76.9028 12.1832 76.6317 11.8651C76.3606 11.5433 76.1509 11.1584 76.0027 10.7101C75.8581 10.2582 75.7858 9.75574 75.7858 9.20265V8.41639C75.7858 7.8633 75.8581 7.36262 76.0027 6.91436C76.1509 6.46249 76.3624 6.07569 76.6371 5.75395C76.9155 5.43222 77.2499 5.1846 77.6403 5.01108C78.0307 4.83756 78.4699 4.7508 78.958 4.7508C79.5544 4.7508 80.0587 4.86286 80.4708 5.08699C80.8829 5.31112 81.2029 5.62201 81.4306 6.01966C81.662 6.41369 81.8048 6.87098 81.859 7.39154H80.8179C80.7673 7.02281 80.6733 6.7065 80.5359 6.44261C80.3985 6.1751 80.2033 5.96905 79.9503 5.82445C79.6972 5.67985 79.3665 5.60755 78.958 5.60755C78.6073 5.60755 78.2982 5.67442 78.0307 5.80818C77.7668 5.94193 77.5445 6.13172 77.3638 6.37754C77.1866 6.62336 77.0529 6.91798 76.9625 7.2614C76.8721 7.60482 76.8269 7.9862 76.8269 8.40554V9.20265C76.8269 9.58945 76.8667 9.95275 76.9462 10.2926C77.0294 10.6324 77.1541 10.9306 77.3204 11.1873C77.4867 11.4439 77.6981 11.6464 77.9548 11.7946C78.2115 11.9392 78.5151 12.0115 78.8658 12.0115C79.3104 12.0115 79.6647 11.941 79.9286 11.8C80.1925 11.659 80.3913 11.4566 80.5251 11.1927C80.6624 10.9288 80.76 10.6125 80.8179 10.2438ZM82.8676 9.88588V9.76116C82.8676 9.33821 82.929 8.94598 83.0519 8.58448C83.1748 8.21937 83.352 7.90306 83.5833 7.63555C83.8147 7.36443 84.0949 7.15476 84.4238 7.00655C84.7528 6.85472 85.1215 6.7788 85.53 6.7788C85.9421 6.7788 86.3126 6.85472 86.6416 7.00655C86.9742 7.15476 87.2562 7.36443 87.4875 7.63555C87.7225 7.90306 87.9014 8.21937 88.0243 8.58448C88.1472 8.94598 88.2087 9.33821 88.2087 9.76116V9.88588C88.2087 10.3088 88.1472 10.7011 88.0243 11.0626C87.9014 11.4241 87.7225 11.7404 87.4875 12.0115C87.2562 12.279 86.976 12.4887 86.647 12.6405C86.3217 12.7887 85.953 12.8628 85.5408 12.8628C85.1287 12.8628 84.7582 12.7887 84.4292 12.6405C84.1003 12.4887 83.8183 12.279 83.5833 12.0115C83.352 11.7404 83.1748 11.4241 83.0519 11.0626C82.929 10.7011 82.8676 10.3088 82.8676 9.88588ZM83.8707 9.76116V9.88588C83.8707 10.1787 83.9051 10.4552 83.9737 10.7155C84.0424 10.9722 84.1455 11.1999 84.2828 11.3987C84.4238 11.5976 84.5991 11.7548 84.8088 11.8705C85.0185 11.9826 85.2625 12.0386 85.5408 12.0386C85.8156 12.0386 86.056 11.9826 86.262 11.8705C86.4717 11.7548 86.6452 11.5976 86.7826 11.3987C86.92 11.1999 87.023 10.9722 87.0917 10.7155C87.164 10.4552 87.2001 10.1787 87.2001 9.88588V9.76116C87.2001 9.47196 87.164 9.19903 87.0917 8.94237C87.023 8.68209 86.9182 8.45254 86.7772 8.25371C86.6398 8.05127 86.4663 7.89222 86.2566 7.77654C86.0506 7.66086 85.8084 7.60302 85.53 7.60302C85.2553 7.60302 85.0131 7.66086 84.8034 7.77654C84.5973 7.89222 84.4238 8.05127 84.2828 8.25371C84.1455 8.45254 84.0424 8.68209 83.9737 8.94237C83.9051 9.19903 83.8707 9.47196 83.8707 9.76116ZM89.201 9.88588V9.76116C89.201 9.33821 89.2625 8.94598 89.3854 8.58448C89.5083 8.21937 89.6854 7.90306 89.9168 7.63555C90.1481 7.36443 90.4283 7.15476 90.7573 7.00655C91.0862 6.85472 91.455 6.7788 91.8634 6.7788C92.2756 6.7788 92.6461 6.85472 92.9751 7.00655C93.3076 7.15476 93.5896 7.36443 93.821 7.63555C94.0559 7.90306 94.2349 8.21937 94.3578 8.58448C94.4807 8.94598 94.5421 9.33821 94.5421 9.76116V9.88588C94.5421 10.3088 94.4807 10.7011 94.3578 11.0626C94.2349 11.4241 94.0559 11.7404 93.821 12.0115C93.5896 12.279 93.3094 12.4887 92.9805 12.6405C92.6551 12.7887 92.2864 12.8628 91.8743 12.8628C91.4622 12.8628 91.0916 12.7887 90.7627 12.6405C90.4337 12.4887 90.1518 12.279 89.9168 12.0115C89.6854 11.7404 89.5083 11.4241 89.3854 11.0626C89.2625 10.7011 89.201 10.3088 89.201 9.88588ZM90.2042 9.76116V9.88588C90.2042 10.1787 90.2385 10.4552 90.3072 10.7155C90.3759 10.9722 90.4789 11.1999 90.6163 11.3987C90.7573 11.5976 90.9326 11.7548 91.1423 11.8705C91.3519 11.9826 91.5959 12.0386 91.8743 12.0386C92.149 12.0386 92.3894 11.9826 92.5955 11.8705C92.8051 11.7548 92.9787 11.5976 93.116 11.3987C93.2534 11.1999 93.3564 10.9722 93.4251 10.7155C93.4974 10.4552 93.5336 10.1787 93.5336 9.88588V9.76116C93.5336 9.47196 93.4974 9.19903 93.4251 8.94237C93.3564 8.68209 93.2516 8.45254 93.1106 8.25371C92.9732 8.05127 92.7997 7.89222 92.5901 7.77654C92.384 7.66086 92.1418 7.60302 91.8634 7.60302C91.5887 7.60302 91.3465 7.66086 91.1368 7.77654C90.9308 7.89222 90.7573 8.05127 90.6163 8.25371C90.4789 8.45254 90.3759 8.68209 90.3072 8.94237C90.2385 9.19903 90.2042 9.47196 90.2042 9.76116ZM96.8033 8.01512V15.0101H95.7947V6.88725H96.7166L96.8033 8.01512ZM100.756 9.77201V9.88588C100.756 10.3124 100.706 10.7083 100.604 11.0734C100.503 11.4349 100.355 11.7494 100.16 12.0169C99.9682 12.2844 99.7315 12.4923 99.4495 12.6405C99.1675 12.7887 98.844 12.8628 98.4789 12.8628C98.1065 12.8628 97.7776 12.8014 97.492 12.6784C97.2064 12.5555 96.9642 12.3766 96.7654 12.1416C96.5665 11.9067 96.4075 11.6247 96.2882 11.2957C96.1725 10.9668 96.093 10.5962 96.0496 10.1841V9.5768C96.093 9.143 96.1743 8.75439 96.2936 8.41097C96.4129 8.06754 96.5702 7.77473 96.7654 7.53252C96.9642 7.28671 97.2046 7.10053 97.4865 6.97401C97.7685 6.84387 98.0939 6.7788 98.4626 6.7788C98.8313 6.7788 99.1585 6.8511 99.4441 6.9957C99.7296 7.13668 99.97 7.33912 100.165 7.60302C100.36 7.86691 100.507 8.18322 100.604 8.55195C100.706 8.91706 100.756 9.32375 100.756 9.77201ZM99.7477 9.88588V9.77201C99.7477 9.47919 99.717 9.20445 99.6555 8.94779C99.5941 8.68751 99.4983 8.45977 99.3681 8.26456C99.2416 8.06573 99.0789 7.91029 98.8801 7.79823C98.6813 7.68255 98.4445 7.62471 98.1698 7.62471C97.9167 7.62471 97.6962 7.66809 97.5082 7.75485C97.3239 7.84161 97.1666 7.95909 97.0365 8.10731C96.9063 8.25191 96.7997 8.4182 96.7166 8.60617C96.637 8.79054 96.5774 8.98213 96.5376 9.18096V10.5854C96.6099 10.8384 96.7111 11.077 96.8413 11.3011C96.9714 11.5217 97.1449 11.7006 97.3618 11.838C97.5787 11.9717 97.8517 12.0386 98.1806 12.0386C98.4517 12.0386 98.6849 11.9826 98.8801 11.8705C99.0789 11.7548 99.2416 11.5976 99.3681 11.3987C99.4983 11.1999 99.5941 10.9722 99.6555 10.7155C99.717 10.4552 99.7477 10.1787 99.7477 9.88588ZM104.471 12.8628C104.062 12.8628 103.692 12.7941 103.359 12.6568C103.03 12.5158 102.746 12.3188 102.508 12.0657C102.273 11.8127 102.092 11.5126 101.966 11.1656C101.839 10.8185 101.776 10.439 101.776 10.0269V9.79912C101.776 9.32194 101.846 8.89718 101.987 8.52484C102.128 8.14888 102.32 7.83076 102.562 7.57048C102.804 7.3102 103.079 7.11319 103.386 6.97943C103.693 6.84568 104.012 6.7788 104.341 6.7788C104.76 6.7788 105.121 6.8511 105.425 6.9957C105.732 7.1403 105.984 7.34274 106.179 7.60302C106.374 7.85968 106.519 8.16334 106.613 8.51399C106.707 8.86103 106.754 9.2406 106.754 9.65271V10.1028H102.372V9.28398H105.75V9.20807C105.736 8.94779 105.682 8.69474 105.588 8.44892C105.497 8.2031 105.353 8.00066 105.154 7.84161C104.955 7.68255 104.684 7.60302 104.341 7.60302C104.113 7.60302 103.903 7.65182 103.712 7.74942C103.52 7.84341 103.355 7.9844 103.218 8.17238C103.081 8.36036 102.974 8.58991 102.898 8.86103C102.822 9.13215 102.784 9.44485 102.784 9.79912V10.0269C102.784 10.3052 102.822 10.5673 102.898 10.8131C102.978 11.0553 103.092 11.2686 103.24 11.453C103.392 11.6373 103.574 11.7819 103.787 11.8868C104.004 11.9916 104.25 12.044 104.525 12.044C104.879 12.044 105.179 11.9717 105.425 11.8271C105.671 11.6825 105.886 11.4891 106.07 11.2469L106.678 11.7295C106.551 11.9211 106.39 12.1037 106.195 12.2772C106 12.4507 105.759 12.5917 105.474 12.7001C105.192 12.8086 104.857 12.8628 104.471 12.8628ZM108.603 6.88725L109.888 9.0237L111.189 6.88725H112.366L110.446 9.78285L112.425 12.7544H111.265L109.909 10.5528L108.554 12.7544H107.388L109.362 9.78285L107.448 6.88725H108.603Z" fill="white"/>
</svg>
